<svg preserveAspectRatio="none" overflow="visible" style="display: block;" width="684.599" height="458.91" viewBox="0 0 684.599 458.91" fill="none" xmlns="http://www.w3.org/2000/svg">
<g id="Mask" clip-path="url(#clip0_0_128)">
<g id="image" clip-path="url(#clip1_0_128)">
<path id="Vector" fill-rule="evenodd" clip-rule="evenodd" d="M424.618 249.326L425.037 248.351L426.05 246.174L428.192 245.098L429.72 243.511L431.908 242.49L431.945 240.314L433.16 239.111L433.908 237.047L435.4 235.403L435.217 233.383L436.48 231.807L435.833 228.743L437.902 226.771L438.73 224.809L440.873 223.734L441.484 221.67L441.615 219.435L443.105 217.79L443.467 215.136L444.755 214.74L446.276 213.665L447.38 211.692L449.54 211.716L451.02 210.332L452.757 209.8L454.527 209.496L456.005 208.372L458.068 208.886L459.974 208.662L462.287 207.803L464.042 206.226L466.139 205.183L468.064 203.825L469.574 203.19L470.878 202.193L472.141 200.615L473.837 199.506L475.361 198.169L477.318 197.389L479.149 196.448L480.243 194.565L482.632 194.34L484.329 193.23L485.898 191.949L487.08 190.17L488.821 189.117L490.903 188.677L492.303 186.919L493.92 185.525L496.264 185.154L497.791 183.825L498.928 181.99L500.76 180.959L502.203 179.52L502.817 177.285L504.386 176.005L506.002 174.7L507.572 173.421L508.403 171.378L509.585 169.599L509.014 167.17L510.061 165.402L510.233 163.484L510.841 161.681L511.189 159.547L512.931 158.494L514.59 157.327L515.337 155.433L517.123 154.436L517.999 152.45L519.661 151.113L521.142 149.639L522.063 147.529L523.426 148.029L524.742 148.564L525.786 147.056L527.637 146.955L528.724 145.674L530.201 144.461L532.156 144.031L533.849 143.273L536.019 143.116L538.301 143.561L539.952 142.395L542.39 141.876L544.884 143.035L546.44 142.458L548.477 141.88L550.482 140.984L552.316 139.783L554.861 140.387L556.542 140.059L557.554 139.945L559.081 138.438L560.744 136.921L563.4 136.422L565.917 136.368L567.955 135.7L569.185 133.807L571.531 133.354L572.76 131.461L574.42 130.204L576.719 129.866L577.774 128.009L579.298 126.762L581.424 126.288L582.689 124.622L584.084 123.206L585.87 122.29L587.438 121.01L589.223 120.093L591.27 119.427L592.713 118.067L594.624 117.321L596.102 116.017L597.547 114.486L599.965 115.102L601.674 113.56L604.11 113.301L605.54 112.203L607.964 112.205L609.532 111.017L610.966 109.746L612.878 108.91L614.185 107.56L615.565 106.928L617.228 107.472L618.503 105.635L620.757 105.421L622.713 104.731L624.237 103.485L626.066 102.715L627.422 100.99L629.669 101.38L631.669 100.827L633.019 99.5344L634.586 98.6058L636.064 97.3925L637.623 96.463L639.41 95.3764L641.105 94.1757L642.765 92.9185L644.939 92.421L646.555 91.1073L648.771 90.7473L650.125 89.1935L651.695 87.9138L654.117 88.0972L655.641 86.8507L657.55 86.2743L658.918 84.1089L661.011 83.3189L660.398 80.663L659.036 78.1982L658.11 75.9392L656.204 74.2002L654.699 72.3489L653.683 70.0666L651.994 68.3402L650.132 66.7395L649.022 64.6952L647.829 62.6186L645.599 61.4462L644.128 59.7325L642.697 60.8318L641.586 58.7777L640.3 58.8216L639.447 59.4214L637.311 58.1017L634.816 57.0327L634.71 55.7384L633.95 53.9573L634.605 52.2105L634.639 50.4744L634.459 48.3744L635.207 46.2188L633.519 44.4924L632.094 43.0157L630.576 41.5965L629.822 39.4731L627.773 38.3476L626.521 36.7363L626.123 34.4432L624.156 33.2513L623.309 31.3649L623.349 31.3044L622.328 29.3645L620.809 27.9443L618.583 24.3686L616.799 23.2313L614.142 23.8185L612.249 23.522L610.513 24.1433L609.132 24.5969L607.816 24.1521L606.528 24.4574L604.07 26.1009L602.348 26.2911L600.405 26.3701L598.804 27.162L596.954 27.0928L594.935 26.7163L596.771 25.1635L599.131 24.1901L600.313 22.411L602.533 21.7898L604.059 20.2818L605.334 18.3545L606.737 16.4262L608.323 14.3633L608.244 14.0795C607.845 13.9307 607.5 13.7488 607.238 13.5898C606.142 12.9061 604.498 11.4076 603.677 10.4423C602.812 9.56066 602.135 8.99354 601.401 8.41743C600.206 8.75914 599.029 9.09609 597.627 9.2699C595.28 9.55106 593.024 9.85516 590.553 9.61518C589.011 9.50034 586.313 9.24698 584.698 8.41548C582.383 7.21956 583.505 6.16554 581.77 4.38038C579.519 2.19613 575.289 3.79467 573.037 3.66642C571.496 3.55158 570.083 3.42598 568.488 3.43428C565.659 3.45354 563.374 2.91725 560.647 2.00439C558.893 1.35438 555.338 0.0793054 554.214 1.21434C555.794 3.96469 556.894 6.36343 554.572 7.82733C552.828 8.9724 550.344 9.43513 548.258 9.95656C545.909 10.4991 543.049 9.93937 540.827 10.5613C538.512 11.2411 537.204 12.7714 534.59 13.2358C531.839 13.7103 529.272 14.0607 526.449 13.6474C525.219 13.4871 525.796 13.1591 524.554 13.3498C522.516 13.7569 521.673 16.2428 519.545 16.5364C516.796 16.9299 516.658 14.965 514.751 13.0436C513.185 11.5657 511.924 10.826 510.627 9.07483C505.215 10.2275 500.04 12.4037 494.709 13.8405C489.825 15.1315 486.976 18.6945 483.85 22.2589C480.236 26.526 477.232 28.7264 470.662 27.9463C467.801 27.648 464.423 26.0761 462.614 28.3803C462.724 27.0972 461.651 25.7099 460.612 24.6407C458.026 28.1819 456.478 32.7021 452.888 35.3113C451.143 36.5374 450.246 36.9108 449.288 38.8762C447.356 42.635 446.695 47.143 444.899 50.9816C444.49 51.7876 443.809 52.3441 443.573 53.2863C443.007 55.3191 443.299 58.1945 443.607 60.5568C443.883 62.3399 444.949 64.331 444.125 65.772C442.8 68.0772 437.37 70.1847 434.579 70.3504C431.347 70.5631 425.733 66.0233 423.366 67.3405C422.073 68.0787 422.486 73.7913 422.59 75.4389C422.648 77.1196 423.146 78.3933 422.333 79.5735C421.069 81.2416 418.754 81.9213 417.398 83.6564C416.715 84.6544 415.469 85.1879 414.83 86.1523C413.556 87.9013 415.154 89.7875 414.507 91.6173C413.754 94.0365 411.428 92.9213 409.063 92.2816C403.831 90.8111 399.326 88.5794 395.84 83.9168C393.342 80.6092 390.695 78.0139 387.246 75.8876C383.537 73.6113 379.734 73.4489 375.847 71.4691C373.304 70.2512 372.588 70.5802 370.628 71.5326C368.746 72.9494 366.907 74.3235 365.025 75.7403C364.031 76.7838 362.785 77.2266 361.246 77.0307C359.348 79.0508 358.997 83.4139 358.244 86.1035C358.054 87.0125 358.163 88.0468 357.926 88.8989C357.116 91.6936 351.736 93.3353 349.679 94.9677C348.467 95.9087 348.186 96.7947 347.327 97.9182C346.099 99.4624 343.919 100.492 343.306 102.55C342.74 104.492 343.119 109.979 345.106 112.004C340.68 110.319 339.94 116.417 340.272 119.871C340.732 123.496 343.996 130.636 340.867 132.586C340.059 133.063 338.519 133.039 337.538 133.469C336.199 134.151 334.986 135.272 333.82 136.179C330.633 138.504 331.277 141.914 329.884 145.65C326.841 145.215 324.855 142.928 322.047 141.722C319.285 140.491 319.718 141.049 318.874 143.436C318.029 146.093 317.963 149.227 317.163 151.941C315.966 150.123 313.733 148.859 312.309 147.029C309.981 144.119 308.309 141.526 305.208 139.411C303.204 137.989 302.04 136.579 299.838 136.155C298.079 135.848 294.754 136.479 292.971 134.898C289.713 132.043 292.713 125.298 291.024 121.423C288.237 114.978 282.86 114.211 277.68 112.194C275.445 111.282 272.774 109.985 270.632 108.745C269.362 108.005 267.933 106.787 266.522 106.489C263.572 105.907 261.626 108.223 258.963 108.982C256.651 109.581 256.555 110.08 254.814 108.817C253.51 107.85 252.538 105.352 251.326 104.146C249.418 102.225 245.812 101.505 243.253 101.251C240.254 100.963 238.57 103.518 236.332 104.923C233.515 106.737 229.443 106.939 225.733 106.628C224.275 106.446 223.14 105.877 221.896 106.329C220.962 106.726 220.808 107.52 219.703 107.702C218.105 107.971 215.276 105.924 214.078 106.343C216.03 110.377 214.741 110.592 211.143 111.93C207.226 113.401 202.299 114.376 197.56 112.824C195.496 112.13 195.155 111.514 193.638 109.923C190.738 106.817 187.646 106.759 184.165 106.379C181.167 106.092 177.982 106.1 174.91 104.915C172.584 103.979 173.262 103.504 171.843 101.151C169.876 97.8192 165.142 93.6809 162.498 90.7346C161.548 89.6887 160.852 89.0626 159.718 88.3127C157.497 86.8785 157.608 87.6514 155.864 88.7966C151.386 91.7786 147.358 85.3446 142.364 85.6012C141.479 85.623 140.855 86.1556 140.052 86.2001C139.04 86.2326 138.7 85.4377 137.629 85.7553C135.634 86.3 133.367 88.8401 131.806 89.9416C131.136 90.4175 129.1 92.6185 128.136 92.3567C127.344 92.0501 124.963 87.2987 124.54 86.48C123.859 85.1607 123.692 84.5012 123.631 83.0819C123.57 81.8428 122.952 79.5261 122.971 78.4811C123.148 76.0384 127.872 74.1699 129.661 73.0815C124.054 72.6447 118.754 72.695 113.436 73.5194C110.997 73.9486 108.419 74.5594 105.899 74.7044C104.038 74.8148 101.845 74.1209 100.029 74.2879C97.7725 74.5923 96.5097 75.9096 93.9159 75.2477C91.8037 74.7575 90.3766 73.3684 88.7664 71.8339C88.0196 73.6399 89.0634 77.2073 88.1334 79.1385C87.4454 80.479 85.3956 81.3279 84.1836 82.1787C80.6855 84.7299 76.7177 86.5783 71.9453 86.6761C69.957 86.7072 68.1053 86.457 67.4483 88.5566C66.7442 90.6808 67.8567 94.7935 68.21 97.1223C68.7486 101.121 66.5965 104.948 64.3848 107.546C63.3884 108.671 62.3942 109.715 61.3631 110.792C60.5524 111.711 59.606 112.459 58.4874 112.982C57.8922 114.265 58.3274 114.56 58.4203 116.288C58.587 119.093 58.088 119.787 56.7306 121.512C54.4582 124.566 51.2365 126.754 50.9763 131.14C50.7799 134.628 49.1842 134.637 47.1142 136.43C44.1905 138.916 43.4678 144.232 42.6944 148.047C42.3147 149.604 41.9708 151.216 40.2345 151.668C37.7019 152.245 34.3031 149.922 31.6478 150.078C29.038 150.2 26.6593 152.048 25.6078 154.161C23.8162 157.568 24.7402 162.238 23.7382 166.032C22.8796 169.031 19.4399 171.117 16.1742 171.102C12.9087 171.088 12.4296 170.654 11.088 173.563C9.93439 176.005 7.31465 179.137 4.04246 178.951C5.24677 180.85 8.66593 182.046 10.3081 184.069C11.5171 185.536 14.634 188.834 15.3484 190.651C15.8581 191.844 15.7045 192.628 15.3771 193.638C14.1142 197.101 11.7163 199.995 10.3262 203.379C9.71967 204.923 7.81338 207.808 8.30708 209.694C8.76727 211.171 10.5091 212.173 11.2369 213.468C11.5321 214.026 11.6111 214.49 11.4248 214.967C11.808 215.898 12.3662 216.706 13.0988 217.479C13.8266 218.774 14.0583 220.411 15.1426 221.537C12.7216 220.92 10.741 223.099 7.76227 221.585C7.12682 222.379 11.1056 227.042 11.7426 228.314C13.7402 232.405 14.0769 235.427 12.4218 238.732C11.0001 241.537 7.42777 243.282 4.91979 245.042C3.89165 245.677 1.5288 246.653 0.969996 247.991C-0.0452715 250.341 2.69978 254.501 3.48671 257.117C4.10813 258.992 4.96875 262.684 7.06549 263.777C5.64384 266.582 3.15805 269.011 3.66236 272.782C4.01101 275.453 5.6047 279.918 7.18792 282.407C9.97529 286.885 15.4102 288.972 19.1484 292.36C20.7135 293.838 21.6938 295.462 22.9916 297.034C25.1017 299.661 28.3092 301.017 30.4233 303.391C33.9709 307.507 32.3144 315.196 32.2745 319.513C32.2073 322.909 30.9694 325.498 30.594 328.678C35.638 330.707 34.2273 337.362 33.6764 340.848C33.3311 342.632 32.5038 344.245 33.4358 346.165C33.7764 346.78 35.8403 349.529 36.4119 349.995C38.0227 351.35 41.5199 351.036 43.494 351.707C44.9848 352.288 45.8564 352.879 47.2068 353.722C49.2124 354.972 52.0667 356.055 53.8953 357.511C57.074 359.992 58.3382 365.368 58.1464 368.423C58.0504 370.888 57.1898 372.273 56.4877 374.316C55.8332 376.155 54.5101 378.109 56.6832 380.018C58.4209 381.632 61.777 381.67 63.7804 383.091C65.6113 384.377 67.7804 386.538 68.8481 388.628C69.7007 390.264 69.8531 389.381 69.7278 391.096C69.602 392.902 67.6412 393.764 66.0094 393.717C66.921 396.852 73.2143 398.086 75.399 399.553C79.6321 402.411 80.1259 406.352 82.0398 410.411C78.899 410.647 72.6908 409.265 71.1751 412.488C76.6496 417.3 82.9866 420.737 89.2985 423.766C91.4425 424.835 93.6333 425.599 95.6451 427.112C100.609 431.002 103.085 437.402 107.738 441.518C109.258 442.849 110.002 443.18 111.727 443.17C114.554 443.151 118.365 440.383 121.547 442.782C122.551 443.534 123.824 446.248 124.071 447.192C124.273 447.988 123.957 448.647 124.25 449.556C124.62 451.011 125.828 452.568 126.553 453.944C127.311 455.367 127.715 456.795 128.045 458.184L424.618 249.326ZM605.819 14.0229L605.692 13.8531L605.708 13.1606L606.342 14.6022L605.819 14.0229ZM592.473 28.7568L592.646 28.7119L592.509 28.8026L592.473 28.7568ZM592.518 28.8134L592.737 28.8251L592.253 28.9148L592.518 28.8134Z" fill="black"/>
</g>
</g>
<defs>
<clipPath id="clip0_0_128">
<rect width="684.599" height="458.91" fill="white"/>
</clipPath>
<clipPath id="clip1_0_128">
<rect width="661.637" height="458.91" fill="white"/>
</clipPath>
</defs>
</svg>
